<?xml version="1.0" encoding="utf-8"?>
<!-- Generator: Adobe Illustrator 23.0.1, SVG Export Plug-In . SVG Version: 6.00 Build 0)  -->
<svg version="1.1" id="Layer_1" xmlns="http://www.w3.org/2000/svg" xmlns:xlink="http://www.w3.org/1999/xlink" x="0px" y="0px"
	 viewBox="0 0 18 58" style="enable-background:new 0 0 18 58;" xml:space="preserve">
<style type="text/css">
	.st0{fill:#1E1E1E;}
</style>
<path class="st0" d="M18,4.6v4.6c-5.7-1.4-8.6-3.8-8.6-3.8C6.8,7.5,3.4,8.7,0,9.3V4.8C5.8,3.2,9.4,0,9.4,0C12.1,2.3,15.1,3.8,18,4.6
	z"/>
<path class="st0" d="M18,45.5v6.2c-4.6,4-8.9,6.3-8.9,6.3c-3.5-1.9-6.5-4-9.1-6.4V45c4.8,5.5,9.4,7.9,9.4,7.9
	C12.1,51.4,15.5,48.1,18,45.5z"/>
<rect x="1" y="18.9" class="st0" width="16" height="4.2"/>
<rect x="1" y="26.1" class="st0" width="16" height="4.2"/>
<rect x="1" y="33.3" class="st0" width="16" height="4.2"/>
<polyline class="st0" points="0,51.5 0,44.9 0,9.3 0,4.8 "/>
<polyline class="st0" points="18,51.6 18,45.5 18,9.2 18,4.6 "/>
</svg>
