<?xml version="1.0" encoding="utf-8"?>
<!-- Generator: Adobe Illustrator 23.0.1, SVG Export Plug-In . SVG Version: 6.00 Build 0)  -->
<svg version="1.1" id="Layer_1" xmlns="http://www.w3.org/2000/svg" xmlns:xlink="http://www.w3.org/1999/xlink" x="0px" y="0px"
	 viewBox="0 0 234 118" style="enable-background:new 0 0 234 118;" xml:space="preserve">
<style type="text/css">
	.st0{fill:#FFFFFF;}
</style>
<path class="st0" d="M0.6,11.8c0,0-9.9,72.3,47.8,103.3c0,0,18.7-9.9,29.8-25.7l56-5.3H71.8c0,0-13.4,16.3-22.8,21
	c0,0-43.2-22.8-40.3-82.8c0,0,26.8,2.3,40.3-8.8c0,0,13.4,11.1,39.7,8.8v12.8h144.7L97.5,26.3V11.8c0,0-28,8.8-48.4-8.8
	C49.1,3,28.7,21.1,0.6,11.8z"/>
<g>
	<g>
		<rect x="68" y="47.5" class="st0" width="19.3" height="5"/>
		<g>
			<path class="st0" d="M65.1,47.5L62.7,70h-5.7l-4.5-11l-4.5,11h-5.7L40,47.5h5.5l1.3,12.4l4.7-10h1.8l4.7,10l1.3-12.4H65.1z"/>
			<path class="st0" d="M108.3,57.8c0.4,0.5,0.7,1,1.1,1.4c0.6,0.7,1,1.4,1.1,2c0.2,0.8,0.4,1.5,0.4,2.3c0,2.3-0.9,4.1-2.6,5.1
				c-1.3,0.8-3.4,1.2-6,1.2h-12V47.5h12.1c2.4,0,4.3,0.4,5.6,1.2c1.8,1.1,2.7,2.6,2.7,4.7c0,0.9-0.2,1.7-0.6,2.5
				C110,56.2,109.4,56.9,108.3,57.8z M96.1,56.2h5.6c1,0,1.6-0.3,2-0.8c0.2-0.3,0.3-0.6,0.3-1c0-0.8-0.4-1.4-1.1-1.7
				c-0.3-0.1-0.7-0.2-1.1-0.2h-5.8V56.2z M96.1,64.8h7.3c1.1,0,1.8-0.4,2.2-1.1c0.1-0.3,0.2-0.5,0.2-0.8c0-1-0.6-1.7-1.7-1.9
				c-0.3-0.1-0.6-0.1-0.9-0.1h-7.1V64.8z"/>
			<path class="st0" d="M119.6,47.5v8.7h9.4v-8.7h5.8V70H129v-9.4h-9.4V70h-5.8V47.5H119.6z"/>
			<path class="st0" d="M145.2,47.8h8.6l7.5,22.2h-5.6l-1.5-4.5h-9.4l-1.4,4.5h-5.6L145.2,47.8z M149,52.2l-2.6,8h6l-2.5-8H149z"/>
			<path class="st0" d="M164.3,47.5h6.6l10.3,14.1V47.5h5.6V70h-6.3l-10.6-15.1V70h-5.6V47.5z"/>
			<path class="st0" d="M195.6,57c-0.1,0.5-0.1,0.9-0.1,1.3c0,1.7,0.3,3,0.9,4.1c1.1,1.9,2.9,2.9,5.4,2.9h9.4v4.6l-9.5,0
				c-4.2,0-7.4-1.3-9.6-3.9c-1.6-1.9-2.4-4.4-2.4-7.5v-0.5c0-0.3,0.1-1,0.3-1.8c0.2-0.9,0.4-1.7,0.8-2.6c0.7-1.7,1.8-3,3.3-4.1
				c2-1.4,4.5-2.1,7.6-2.1l9.5,0v4.6h-9.4c-0.7,0-1.4,0.1-2.1,0.3c-1.5,0.4-2.6,1.3-3.3,2.6C196,55.8,195.7,56.4,195.6,57z"/>
			<rect x="68.1" y="56.2" class="st0" width="19.3" height="5"/>
			<rect x="68.1" y="64.9" class="st0" width="19.3" height="5"/>
			<g>
				<rect x="214.1" y="47.5" class="st0" width="19.3" height="5"/>
				<rect x="214.1" y="56.2" class="st0" width="19.3" height="5"/>
				<rect x="214.1" y="64.9" class="st0" width="19.3" height="5"/>
			</g>
		</g>
	</g>
</g>
</svg>
